# xmcd
#
# Track frame offsets: 
#        150
#        22949
#        47551
#        68038
#        91112
#        113054
#        134866
#        158092
#        180690
#        203257
#        227789
#        247641
#        271008
#        295537
#
# Disc length: 4306 seconds
#
# Revision: 2
# Processed by: cddbd v1.5.2PL0 Copyright (c) Steve Scherf et al.
# Submitted via: ExactAudioCopy v0.99pb4
#
DISCID=a910d00e
DTITLE=Susanne Fröhlich - [CD 2) Familienpackung
DYEAR=2005
DGENRE=Hörbuch
TTITLE0=Familienpackung (2-1)
TTITLE1=Familienpackung (2-2)
TTITLE2=Familienpackung (2-3)
TTITLE3=Familienpackung (2-4)
TTITLE4=Familienpackung (2-5)
TTITLE5=Familienpackung (2-6)
TTITLE6=Familienpackung (2-7)
TTITLE7=Familienpackung (2-8)
TTITLE8=Familienpackung (2-9)
TTITLE9=Familienpackung (2-10)
TTITLE10=Familienpackung (2-11)
TTITLE11=Familienpackung (2-12)
TTITLE12=Familienpackung (2-13)
TTITLE13=Familienpackung (2-14)
EXTD=
EXTT0=
EXTT1=
EXTT2=
EXTT3=
EXTT4=
EXTT5=
EXTT6=
EXTT7=
EXTT8=
EXTT9=
EXTT10=
EXTT11=
EXTT12=
EXTT13=
PLAYORDER=
